<?xml version="1.0" encoding="UTF-8"?>
<svg width="47px" height="39px" viewBox="0 0 47 39" version="1.1" xmlns="http://www.w3.org/2000/svg" xmlns:xlink="http://www.w3.org/1999/xlink">
    <!-- Generator: Sketch 59.1 (86144) - https://sketch.com -->
    <title>Logo@2x</title>
    <desc>Created with Sketch.</desc>
    <g id="Logo" stroke="none" stroke-width="1" fill="none" fill-rule="evenodd">
        <g id="ЛОГОТИП-бирюза-ЭТАЛОН-(1)">
            <path d="M33.0760412,36.1229345 L33.2959988,36.1229345 L33.2969561,36.1229345 L33.2969561,36.1235074 C33.3944704,36.1235074 33.5169329,36.1115893 33.6218952,36.0699522 C33.637653,36.0637258 33.6530661,36.0566398 33.6679623,36.0488663 C33.7362012,36.0130928 33.7923202,35.9597094 33.8170961,35.8805799 C33.8451461,35.7910792 33.8560597,35.7357859 33.838215,35.7192075 C33.7992514,35.6829183 33.6882195,35.6671993 33.4781416,35.6671993 L33.1921661,35.6671993 L33.0760412,36.1229345 Z M33.4414948,34.6052626 L33.6250927,34.6052626 C33.7605367,34.6052626 33.8717217,34.6002585 33.9446516,34.5729461 C33.9927865,34.5548015 34.0246658,34.5213008 34.0366133,34.4604686 C34.0431998,34.4274646 34.0236318,34.4072572 33.9943565,34.3951672 C33.9273238,34.3673391 33.8272056,34.3611317 33.7432089,34.3611317 L33.493459,34.3611317 L33.4414948,34.6052626 Z M32.1566729,33.0127776 L34.4247558,33.0091423 C34.4798409,33.0089768 34.533356,33.0122619 34.5846309,33.0186603 C34.6431816,33.0257462 34.7043171,33.0373206 34.7664865,33.052352 C34.8279858,33.0673833 34.8870343,33.085165 34.9428087,33.1048758 C35.2088525,33.1993805 35.4438977,33.3538389 35.5476347,33.5006955 L35.5472517,33.5008674 L35.547424,33.5008674 L35.5483814,33.5020134 C35.5691747,33.5313695 35.5896043,33.5623108 35.6091914,33.5946082 C35.6275339,33.6243271 35.6457233,33.6566436 35.6635681,33.6917105 C35.7544959,33.868458 35.8040285,34.0592055 35.7718237,34.2463241 C35.7493071,34.3781494 35.7163939,34.5013417 35.6616726,34.6179638 C35.6050174,34.7380429 35.5269179,34.8474071 35.4151968,34.9464193 L35.4124205,34.9484821 C35.3913016,34.9671424 35.370336,34.9844275 35.3499064,35.0001464 C35.3275622,35.0170878 35.3043372,35.0336662 35.2804421,35.049557 C35.2487543,35.070643 35.2153241,35.0906784 35.1805153,35.1098544 C35.3436646,35.1936634 35.465074,35.3070003 35.5118494,35.4554232 L35.5120218,35.4554232 L35.5121941,35.4561872 L35.5121941,35.4567601 C35.5456243,35.5633549 35.5617267,35.669625 35.5632775,35.7743289 C35.5646178,35.8778104 35.5515023,35.9787135 35.5260372,36.0761596 C35.3997836,36.5604486 34.968159,36.9595726 34.5592232,37.1637853 L34.5580744,37.1647403 L34.5567341,37.1656952 L34.5565427,37.1653132 C34.5120457,37.1874306 34.4621493,37.2076379 34.4082896,37.2262982 C34.3551191,37.2446147 34.3005509,37.2605056 34.2460019,37.2739899 C33.965062,37.3432641 33.6318132,37.3672913 33.3893391,37.3672913 L33.3893391,37.3680553 L31.1713058,37.3680553 L31,37.3680553 L31.040189,37.2018316 L32.0253646,33.1163738 L32.0503128,33.0132169 L32.1566729,33.0127776 Z M44.4499241,36.0622933 L44.8415321,34.4490662 L44.2621713,34.4490662 C44.2051907,34.8160456 44.1120036,35.1287821 43.9775935,35.4136906 C43.868821,35.6448528 43.7335494,35.8563425 43.5695385,36.0622933 L44.4499241,36.0622933 Z M45.9429284,38.9955116 L44.6685032,38.9955116 L44.4973889,38.9955116 L44.5373864,38.829307 L44.8888245,37.3677879 L42.6546696,37.3677879 L42.2828019,38.8965185 L42.2577006,39 L42.1516852,39 L40.9210868,39 L40.749781,39 L40.78997,38.8337954 L41.4197441,36.2193301 L41.4304854,36.1747707 L41.4647772,36.1464269 C42.041534,35.669052 42.3848348,35.285647 42.6023608,34.8412761 C42.8211313,34.3944796 42.9182818,33.876136 43.0010722,33.1325129 L43.0144175,33.0122619 L43.1353099,33.0122619 L46.8285219,33.0122619 L47,33.0122619 L46.959811,33.1789822 L46.2579878,36.0807626 L46.577719,36.0807626 L46.7488524,36.0807626 L46.7088357,36.2469862 L46.0740452,38.8914953 L46.0491161,38.9955116 L45.9429284,38.9955116 Z M40.4523941,33 L41.8620909,33 L42.0333967,33 L41.9932077,33.1662046 L41.0078597,37.2515097 L40.9827392,37.355526 L40.876743,37.355526 L39.4670461,37.355526 L39.2957595,37.355526 L39.335757,37.1893023 L39.5148555,36.4470544 C39.3953416,36.6315754 39.2444845,36.8040065 39.0736957,36.9311715 L39.0731213,36.9311715 C39.0502602,36.9481128 39.0244504,36.9664293 38.9951942,36.9862929 C38.9461786,37.0192969 38.8961099,37.0507349 38.845371,37.0794224 C38.7922006,37.1094852 38.7372878,37.1380008 38.6811687,37.1638999 C38.4113148,37.2888302 38.0903773,37.3721044 37.7297679,37.3714211 L35.5032334,37.3671003 L35.3322914,37.3669284 L35.3721166,37.2015643 L36.3574837,33.1161064 L36.3825851,33.0122619 L36.4886005,33.0122619 L37.8934341,33.0122619 L38.0652568,33.0122619 L38.0247232,33.1789822 L37.7292509,34.3923977 L38.3110434,34.3923977 L38.3118092,34.3923977 L38.3118092,34.3931617 C38.5322838,34.3931617 38.7569323,34.4253063 38.9627022,34.4954591 C38.9968216,34.5070334 39.0305965,34.519811 39.0635097,34.5334672 C39.234624,34.6043076 39.3906889,34.7039883 39.5181678,34.8358136 L39.5185508,34.8354316 L39.5191252,34.8361956 L39.5206569,34.8382775 C39.5563464,34.8752543 39.5887235,34.9160319 39.6176542,34.9593879 C39.646068,35.0020755 39.671514,35.0480291 39.6936859,35.0958926 C39.7312709,35.1772569 39.7595123,35.2657261 39.777874,35.3572895 L40.3212007,33.1041118 L40.3463212,33.0001146 L40.4523941,33 Z M37.3264421,36.1206807 L37.4164892,36.1206807 C37.5964492,36.1206807 37.7183947,36.1111882 37.7945987,36.0705825 C37.8581658,36.0367189 37.8992164,35.9679414 37.932302,35.8438896 C37.9615773,35.7341816 37.9612135,35.6693958 37.9300426,35.6412239 C37.8848372,35.6004463 37.7786686,35.5847273 37.6108284,35.5847273 L37.4558165,35.5847273 L37.3264421,36.1206807 Z" id="path2" fill="#FFFFFF"></path>
            <path d="M37.1089245,31.8146708 L36.0273359,31.8146708 L35.7788535,32.9762091 L34.9222195,32.9762091 L35.5802894,30.0038892 L36.4346453,30.0038892 L36.166365,31.2160281 L37.2479537,31.2160281 L37.5184315,30.0038892 L38.2435564,30.0038892 L37.586938,32.9762091 L36.8604422,32.9762091 L37.1089245,31.8146708 Z M33.8436549,31.9057767 L33.6945252,30.9595289 L33.1563316,31.9057767 L33.8436549,31.9057767 Z M33.932282,32.4301115 L32.8552698,32.4301115 L32.5448937,32.9735612 L31.7507986,32.9735612 L33.5279564,30.0012412 L34.2467306,30.0012412 L34.612549,32.9735612 L34.0190139,32.9735612 L33.932282,32.4301115 Z M29.8448937,30.0038892 L32.0309536,30.0038892 L31.364154,32.9762091 L30.5906633,32.9762091 L31.1040389,30.6857768 L30.4155059,30.6857768 L30.1012186,32.0737765 C30.0016644,32.5135218 29.6657243,32.8702499 29.2445039,32.978402 C29.1253534,33.0090188 28.771067,33.0059985 28.6070989,32.9762091 L28.7264913,32.4139342 C29.0300531,32.4442615 29.2893618,32.3417363 29.4036738,31.9839532 C29.5813311,31.427781 29.7062275,30.988015 29.8448937,30.0038892 L29.8448937,30.0038892 Z M27.3200108,30.5946088 L27.2237427,31.0364849 L27.5969602,31.0364849 C27.7355055,31.0364849 27.9268722,31.0737837 28.0901145,31.1250049 C28.2540422,31.1762054 28.379987,31.2710557 28.4677673,31.4080456 C28.5556081,31.5450147 28.5995789,31.7056085 28.5995789,31.8897029 C28.5995789,32.1803771 28.4708922,32.5166249 28.2549696,32.7048567 C28.0390269,32.8938125 27.739578,32.9762091 27.3195269,32.9762091 L26,32.9762091 L26.6748438,30.0038892 L28.8334648,30.0038892 L28.6916736,30.5946088 L27.3200108,30.5946088 Z M26.9179028,32.3935781 L27.2763222,32.3935781 C27.463697,32.3935781 27.4336776,32.3976742 27.526619,32.3738427 C27.6195807,32.3499905 27.7012321,32.2986865 27.7711095,32.220179 C27.840987,32.1416715 27.8757443,32.0531308 27.8757443,31.9406138 C27.8757443,31.8281174 27.7432674,31.6998368 27.653975,31.6679374 C27.5647029,31.6360586 27.5002688,31.6233567 27.319043,31.6233567 L27.0930804,31.6233567 L26.9179028,32.3935781 Z M38.8371519,30.0038892 L39.5796152,30.0038892 L39.3451446,31.0474077 C39.4666338,31.0474077 39.561047,31.0238864 39.6284245,30.975458 C39.8195291,30.8399576 40.0700276,30.4620667 40.2398221,30.2682701 C40.3210502,30.1762539 40.413286,30.1084003 40.5165095,30.0668813 C40.7133398,29.9863879 41.3352008,30.002317 41.5443897,30.002317 C41.2159293,30.2677736 41.004301,30.485712 40.9011581,30.6916933 C40.7714231,30.728599 40.7488632,30.7590504 40.5620931,30.8873103 C40.3942138,31.0026201 40.2145203,31.1757089 40.0000291,31.3409367 L40.9107345,32.9762091 L39.9481754,32.9762091 L39.6416097,32.2449828 C39.6372348,32.2344945 39.6138079,32.169537 39.5662284,32.0505243 C39.509153,31.9356489 39.3411124,31.8768355 39.1566408,31.8740634 L38.9061827,32.9762091 L38.1659573,32.9762091 L38.8371519,30.0038892 Z M43.2311059,31.9045355 L43.0819762,30.9582877 L42.5437826,31.9045355 L43.2311059,31.9045355 Z M43.319733,32.4288703 L42.2427208,32.4288703 L41.9323447,32.9723199 L41.1382496,32.9723199 L42.9154074,30 L43.6341816,30 L44,32.9723199 L43.4064649,32.9723199 L43.319733,32.4288703 Z" id="path4" fill="#FFFFFF"></path>
            <path d="M3.6178329,7.72951123 C9.59158758,10.0242338 16.1574253,6.34235183 22.9672642,0.101559783 C25.1217461,0.41696143 27.1239798,0.361896395 29,0 C16.9252482,6.45168906 7.44093028,10.1299843 0.759712327,11.7890521 C0.505790478,11.8520833 0.0877775299,12.0818765 0.0100614075,11.9695189 C-0.0676741293,11.8571613 0.325313567,11.5838938 0.492122691,11.3886272 L3.6178329,7.72951123 Z" id="path6" fill="#FFFFFF"></path>
            <path d="M32.7057439,29.3853801 L30.844275,29.3853801 L30.6771452,29.3853801 L30.7152171,29.2224051 L31.4468951,26.088471 L31.1064249,26.088471 L30.7619016,27.5885777 L30.7536267,27.6244457 L30.7530638,27.6255731 C30.7210527,27.7557802 30.6781397,27.8839958 30.6255071,28.0080026 C30.5735687,28.1304499 30.5109725,28.2502292 30.4390506,28.3652174 C30.074056,28.9487258 29.4773089,29.3746141 28.7846972,29.3790107 L28.1363682,29.3831255 C27.9622021,29.3842528 27.8522646,29.3629274 27.771261,29.3270781 C27.6807629,29.2869638 27.6339283,29.2364592 27.5813144,29.1791154 L27.5349677,29.1287236 L27.5491907,29.0618351 L27.6329526,28.6669673 C27.2346709,29.399096 26.6491821,29.9449139 25.9455185,30.0767181 L13.1614931,32.4712898 C16.0812625,34.1332066 19.7437995,35.1785277 24.0908609,35.6553152 C19.48392,35.6771667 16.8962521,36.2884075 14.4798983,37 C6.64705551,35.5000436 5.24186743,27.4284962 4,18.9125534 C4.51033951,20.4065913 5.0364782,21.719955 5.44823238,21.812885 C6.30574087,25.8604487 8.2834519,28.9777171 11.2875274,31.2428332 C12.3080563,31.2530355 13.3474992,31.1962367 14.0915051,30.71742 C17.5547698,28.4886605 12.4887898,20.5634036 7.01796077,12 L16.6734875,12.3501126 C21.7873904,16.4778674 26.47207,21.6190774 27.8889667,24.792487 C28.2409768,25.5809261 28.2819758,26.5434445 28.0871694,27.4315963 L28.1004542,27.4446171 C28.1414157,27.4848441 28.2150264,27.5210879 28.3004582,27.5408914 C28.3660567,27.5561105 28.435877,27.5607137 28.5000869,27.5490646 C28.5576357,27.5386368 28.611169,27.5146433 28.6522431,27.4727628 C28.6873315,27.4369324 28.7152146,27.3859393 28.7312765,27.3164391 L29.3956485,24.4444788 L29.4195349,24.3411585 L29.5247064,24.3411585 L33.8325325,24.3411585 L34,24.3411585 L33.9615904,24.5041523 L32.8348017,29.2827363 L32.81054,29.3855304 L32.7057439,29.3853801 Z" id="path8" fill="#FFFFFF"></path>
            <path d="M34.424712,33.2782227 L32.2629281,33.2816988 L31.3425516,37.0975158 L33.3893602,37.0975158 L33.3893602,37.0980888 C33.6144475,37.0980888 33.9228991,37.0759715 34.1813972,37.0121409 C34.2317336,36.9997262 34.2785853,36.9862611 34.3205546,36.9717836 C34.3616623,36.9576118 34.401066,36.9414154 34.4377317,36.9232709 L34.4383061,36.9226979 L34.4398378,36.9219339 L34.4400293,36.9223159 C34.7915798,36.7464857 35.1603431,36.4098566 35.2650558,36.0082701 C35.2845853,35.9333045 35.2947905,35.8559514 35.29368,35.7771659 C35.2925312,35.69966 35.2801433,35.6194038 35.2544486,35.5371613 L35.2542954,35.5371995 L35.254104,35.5364355 L35.254104,35.5358625 C35.2258627,35.4457701 35.1227201,35.3721414 34.9830074,35.3147474 C34.9523346,35.3021417 34.9198237,35.2903573 34.8861257,35.279547 C34.854036,35.2692523 34.8183467,35.2591869 34.779843,35.2495416 L34.7799195,35.2493506 L34.7797664,35.2493124 L34.3065393,35.1353838 L34.7713227,34.9897499 C34.9118395,34.9457064 35.0320227,34.8906043 35.1315466,34.8245964 C35.1504443,34.8120862 35.1687102,34.7990603 35.1860953,34.785767 C35.2045909,34.7716143 35.2211718,34.7580154 35.2357615,34.7451042 L35.235953,34.7449514 L35.2357615,34.7447604 C35.3189726,34.6709407 35.376623,34.5907991 35.4175392,34.5038963 C35.460083,34.4135365 35.4865244,34.3120225 35.5056327,34.2007487 C35.5268663,34.0769265 35.4899325,33.942676 35.4238002,33.8138879 C35.4112209,33.789345 35.3960185,33.7626821 35.3789397,33.7347777 C35.3632778,33.7091652 35.3460076,33.6831135 35.3275694,33.6569662 L35.3277609,33.6568134 L35.3277226,33.6567752 L35.3265738,33.6558203 C35.25307,33.5517088 35.0690713,33.4360039 34.8530021,33.3592811 C34.8026082,33.3413848 34.7522527,33.3260288 34.7031609,33.3141298 C34.6549498,33.3024218 34.6042304,33.2930249 34.5519603,33.2866838 C34.5065828,33.2811259 34.4638285,33.2782227 34.4247503,33.2782609 L34.424712,33.2782227 Z M32.1566837,33.0127585 L34.424712,33.0091092 C34.4798733,33.0090341 34.5334264,33.0123383 34.5847009,33.018622 C34.643232,33.0257271 34.7044245,33.0373014 34.7665935,33.0524282 C34.8280158,33.067364 34.887083,33.0851266 34.942857,33.1049137 C35.2089371,33.1994181 35.4439998,33.3538759 35.5476212,33.5006367 L35.5474297,33.5007894 L35.547468,33.5008276 L35.5486168,33.5017826 C35.5693717,33.5312341 35.5898011,33.5621371 35.6094838,33.5943771 C35.6277113,33.6241915 35.645958,33.6565078 35.6638792,33.6914791 C35.7546532,33.8682451 35.8042046,34.058973 35.7721149,34.2461292 C35.7495028,34.3779159 35.7166855,34.5012415 35.6618306,34.6178058 C35.6053098,34.7378654 35.5271152,34.8473057 35.4154905,34.9462794 L35.4127334,34.9482658 C35.3915382,34.966926 35.3706301,34.984192 35.3500475,34.9999682 C35.3278183,35.0169285 35.3046509,35.0334687 35.2806986,35.0493595 C35.2489535,35.0704072 35.2155619,35.090519 35.1807342,35.1096185 C35.3438249,35.1934463 35.4652717,35.3067829 35.5120276,35.4552244 L35.5121808,35.4551862 L35.5123723,35.4559501 L35.5123723,35.4565231 C35.5457256,35.5631939 35.5619237,35.6694446 35.5634171,35.7740527 C35.5649488,35.8775148 35.5516419,35.9784748 35.5262727,36.0758442 C35.3999818,36.5602845 34.9684368,36.9594072 34.5593508,37.1636001 L34.558202,37.1647461 L34.5566703,37.1655101 L34.5565554,37.1653191 C34.5119822,37.1873217 34.4621628,37.2076627 34.4083034,37.2262275 C34.3550759,37.244563 34.3006038,37.2604156 34.245902,37.2739381 C33.9650599,37.3432884 33.6318901,37.3673347 33.3893028,37.3673347 L33.3893028,37.3679077 L31.1712662,37.3679077 L31,37.3679077 L31.0401121,37.2016846 L32.025453,33.1163925 L32.0503436,33.0131596 L32.1566837,33.0127585 Z M33.6250356,34.8754393 L33.2744807,34.8754393 L33.1075033,34.8754393 L33.1422544,34.7124058 L33.251792,34.1981512 L33.2745956,34.091022 L33.3840183,34.091022 L33.7432658,34.091022 C33.853531,34.091022 33.9893377,34.1009728 34.0979946,34.1461623 C34.2445426,34.2069942 34.34085,34.3171221 34.3022313,34.5122428 C34.269146,34.6795928 34.1780274,34.7732187 34.0398464,34.8250548 C33.9264986,34.8675894 33.7879731,34.8754393 33.6250356,34.8754393 L33.6250356,34.8754393 Z M33.4414581,34.6052766 L33.6250356,34.6052766 C33.760536,34.6052766 33.8717585,34.6002343 33.9446496,34.5728838 C33.9927458,34.5548538 34.0246823,34.5212769 34.0367064,34.4605404 C34.0432354,34.42746 34.0236101,34.4073291 33.9943541,34.3951818 C33.9273411,34.3673156 33.8273193,34.3611847 33.7432658,34.3611847 L33.493422,34.3611847 L33.4414581,34.6052766 Z M33.2960972,36.3930681 L32.902003,36.3930681 L32.7279413,36.3931063 L32.7708488,36.2247632 L32.9559006,35.4987522 L32.9818442,35.3969135 L33.0870548,35.3969135 L33.4782961,35.3969135 C33.761455,35.3969135 33.9287962,35.4344632 34.0224996,35.5218435 C34.137494,35.6290109 34.1357709,35.7680745 34.0753059,35.9607123 C34.0261375,36.1173857 33.920276,36.2205804 33.792932,36.2872377 C33.7697072,36.2993468 33.7457165,36.3102908 33.7213429,36.3199743 C33.5791987,36.3764134 33.4211053,36.392457 33.2970162,36.3925334 L33.2970162,36.3931063 L33.2960972,36.3930681 Z M33.0760838,36.1229054 L33.2960972,36.1229054 L33.2970545,36.1229054 L33.2970545,36.1234784 C33.3946256,36.1234402 33.5170297,36.1115794 33.6219721,36.0699233 C33.6377872,36.0636396 33.653296,36.0565537 33.6681346,36.0488184 C33.7363156,36.0131405 33.7924725,35.9596427 33.8172674,35.8805707 C33.8453554,35.7910512 33.8561924,35.7357581 33.8384435,35.7192179 C33.7993844,35.6828143 33.6883342,35.6671144 33.4783344,35.6671144 L33.1923036,35.6671144 L33.0760838,36.1229054 Z M38.31101,34.6626324 L37.5574769,34.6626324 L37.3856937,34.6626706 L37.4263036,34.4958936 L37.7218312,33.2823864 L36.5948055,33.2823864 L35.6744099,37.0983944 L37.7298919,37.1023131 C38.0468637,37.1028828 38.3297354,37.0293687 38.5680338,36.9190881 C38.6188106,36.8956147 38.6668685,36.8708045 38.7121119,36.845192 C38.759672,36.8182426 38.8037092,36.7908921 38.8440127,36.7635989 C38.8648825,36.7494652 38.8877627,36.7331542 38.9120214,36.7150861 L38.91183,36.7148951 C39.1175601,36.5618506 39.2909516,36.3284354 39.40294,36.09672 C39.4246713,36.0516833 39.4440477,36.0068949 39.4607244,35.9631188 C39.4766735,35.921119 39.4906888,35.8781642 39.5024065,35.8350565 L39.5029809,35.8350565 L39.5030575,35.8348655 L39.5026745,35.8347891 C39.5579699,35.6305771 39.5346493,35.3959203 39.4481642,35.2086686 C39.4317747,35.1731053 39.4130494,35.1393756 39.3922753,35.1082052 C39.3724777,35.0784481 39.3508229,35.0511931 39.3277513,35.0269558 L39.3275981,35.0271086 L39.3270237,35.0265356 L39.325492,35.0244347 C39.2248958,34.9200176 39.0992942,34.8402198 38.9599645,34.7824819 C38.9324508,34.7710795 38.9043819,34.7604984 38.8760258,34.7508531 C38.6977328,34.6901357 38.5031269,34.6622504 38.3118907,34.6622122 L38.3118907,34.6627852 L38.31101,34.6626324 Z M37.4164814,36.3898212 L37.1553985,36.3898212 L36.9842471,36.3898212 L37.0242444,36.224152 L37.2185822,35.418496 L37.2436451,35.3145564 L37.3497364,35.3145564 L37.610781,35.3145564 C37.845499,35.3145564 38.0089726,35.3499287 38.1108516,35.4417401 C38.2266501,35.546119 38.2512152,35.6957637 38.1935265,35.9125433 C38.1395906,36.1151319 38.0586771,36.2349814 37.9216067,36.3079607 C37.7970964,36.3741978 37.6392328,36.3898212 37.4164814,36.3898212 L37.4164814,36.3898212 Z M37.3265116,36.1207281 L37.4164814,36.1207281 C37.5964976,36.1207281 37.7183274,36.1111592 37.7946457,36.0705727 C37.8582123,36.0367284 37.8992818,35.9678746 37.9322905,35.8439378 C37.961489,35.7341538 37.9612976,35.6693682 37.9299737,35.6411582 C37.8847686,35.6004189 37.7786008,35.5847191 37.610781,35.5847191 L37.4558276,35.5847191 L37.3265116,36.1207281 Z M41.6908424,33.2701818 L40.5583983,33.2701818 L39.6381941,37.0853112 L40.7706382,37.0853112 L41.6908424,33.2701818 Z M40.452307,33 L41.8620704,33 L42.0332983,33 L41.9932245,33.1662231 L41.0078836,37.2515152 L40.9827824,37.3554739 L40.8767295,37.3554739 L39.4669662,37.3554739 L39.2956999,37.3554739 L39.335812,37.1892699 L39.5148326,36.4469861 C39.3953771,36.631583 39.2445402,36.8040325 39.0736569,36.931159 L39.0730825,36.931159 C39.0502789,36.9480811 39.0244119,36.9664549 38.9951942,36.9862229 C38.9462555,37.0193414 38.8961298,37.0506647 38.845353,37.0794476 C38.7922212,37.1095485 38.7373854,37.1379113 38.6811519,37.1639057 C38.411319,37.2888166 38.0903839,37.3720905 37.7298536,37.3714071 L35.5033351,37.3671628 L35.3322603,37.3667808 L35.372181,37.2014172 L36.3575219,33.1161251 L36.3825847,33.0121664 L36.488676,33.0121664 L37.8935569,33.0121664 L38.0652827,33.0121664 L38.0247111,33.1789052 L37.7292026,34.3924124 L38.3109717,34.3924124 L38.3117376,34.3924124 L38.3117376,34.3929854 C38.5322488,34.3930618 38.7567617,34.4252254 38.9626067,34.4953397 C38.9967259,34.5069331 39.0304814,34.5196534 39.0634518,34.5333096 C39.2345649,34.6042261 39.3905138,34.7038492 39.5181067,34.8356932 L39.5182982,34.8355022 L39.5188726,34.8360752 L39.5204043,34.8381761 C39.5560169,34.8752292 39.5884513,34.9159685 39.6173626,34.9593626 C39.6458336,35.0020882 39.6712411,35.0478889 39.6933554,35.0957523 C39.7309785,35.1771926 39.7591431,35.2657571 39.7774855,35.3573011 L40.3209614,33.104016 L40.3460243,33.0000573 L40.452307,33 Z M44.8395564,38.7253489 L45.8366724,38.7253489 L46.4066281,36.3509537 L46.0864397,36.3509537 L45.9149437,36.3509537 L45.9552855,36.1842149 L46.6570463,33.2823864 L43.2558846,33.2823864 C43.1722523,33.9932706 43.0683055,34.5045839 42.8456498,34.9593817 C42.6139569,35.4325914 42.2587302,35.8355913 41.6713703,36.3258378 L41.0922435,38.7298182 L42.0456479,38.7298182 L42.417398,37.2009397 L42.4425375,37.0975158 L42.5485522,37.0975158 L45.0599528,37.0975158 L45.2310658,37.0975158 L45.1911069,37.2637389 L44.8395564,38.7253489 Z M45.9428785,38.9955116 L44.6684433,38.9955116 L44.497292,38.9955116 L44.5372892,38.8293076 L44.8888397,37.3676976 L42.6545668,37.3676976 L42.2828167,38.8965761 L42.2576389,39 L42.1516625,39 L40.9210538,39 L40.7498259,39 L40.7898997,38.8337769 L41.4197267,36.2192434 L41.4304488,36.1747606 L41.4646829,36.1464169 C42.0414739,35.668948 42.3848105,35.2855633 42.6023732,34.8412129 C42.8210847,34.394456 42.9181962,33.8761714 43.0010243,33.1325316 L43.0144078,33.0122237 L43.1353568,33.0122237 L46.8285423,33.0122237 L47,33.0122237 L46.9596964,33.1789625 L46.2579357,36.080791 L46.5776645,36.080791 L46.748701,36.080791 L46.7088378,36.246995 L46.0740518,38.8915529 L46.0490464,38.9955116 L45.9428785,38.9955116 Z M45.1440829,34.3462107 L44.6872836,36.2285067 L44.6622973,36.3313958 L44.5561294,36.3313958 L43.2771182,36.3313958 L42.9719598,36.3313958 L43.1771538,36.1060978 C43.4140737,35.8460006 43.5974214,35.5881188 43.7333048,35.2998116 C43.8696859,35.0104156 43.9602301,34.6872517 44.0112367,34.2971249 L44.0265539,34.1800448 L44.145033,34.1800066 L45.0129287,34.1800066 L45.1843864,34.1800066 L45.1440829,34.3462107 Z M44.4499233,36.0623026 L44.8414327,34.4490998 L44.2620761,34.4490998 C44.2050767,34.8160589 44.1120243,35.1286989 43.9776535,35.4137593 C43.8687477,35.6448253 43.7335728,35.8562952 43.5695249,36.0623026 L44.4499233,36.0623026 Z" id="path10" fill="#109F9C"></path>
            <g id="Layer1001" transform="translate(1.000000, 8.000000)">
                <path d="M29.977558,21.245134 L31.6123317,21.245134 L32.7067738,16.6197226 L28.5567247,16.6197226 L27.897979,19.4574414 C27.8692826,19.5811336 27.8152668,19.6762859 27.7452913,19.7474432 C27.6604755,19.8336406 27.5544317,19.882093 27.4427141,19.9023329 C27.3379054,19.9212439 27.2285036,19.9148311 27.1286738,19.8917989 C27.0771475,19.8798976 27.0272422,19.863336 26.9811194,19.8432695 L26.6984387,21.1710881 C26.7156141,21.1864172 26.7337931,21.1993392 26.7549633,21.2086984 C26.8061036,21.2312684 26.8844159,21.2445948 27.0195808,21.2437474 L27.6863545,21.23953 C28.2975106,21.2356784 28.829351,20.852816 29.1586562,20.3281592 C29.2234983,20.2248416 29.281065,20.1145527 29.3301597,19.9992376 C29.378444,19.8858483 29.4178317,19.7687229 29.4471843,19.6498836 L29.4555018,19.6142184 L29.8342106,17.9718637 L29.8585843,17.8659656 L29.9669633,17.8659656 L30.5973211,17.8659656 L30.769172,17.8659656 L30.7300738,18.0330069 L29.977558,21.245134 Z" id="path12" fill="#FFFFFF"></path>
                <path d="M27.0804354,19.0635825 L23.7775214,19.0635825 C23.6753951,19.403404 24.0909249,19.7725164 24.4552565,19.7725164 C24.8195688,19.7725164 25.1914653,19.6359985 25.3117512,19.3681431 L26.9697407,19.3681431 C26.4790828,20.3336858 25.3245653,21.1086351 24.233153,21.1086351 C22.8637688,21.1086351 21.8649302,20.0149901 22.1652495,18.665468 C22.4792512,17.2546487 23.7649003,16.2158304 25.2236933,16.2158304 C27.04786,16.2158304 27.4747372,17.4982587 27.0804354,19.0635825 Z M18.5056667,19.3745396 L19.3711158,19.3737693 C19.8244123,19.3733841 20.1967333,19.2828922 20.3067333,18.7842525 C20.416714,18.2856127 19.8903737,18.1927328 19.5849018,18.1927328 L18.7712105,18.1927714 L18.5056667,19.3745396 Z M22.0486811,14.4314855 L21.6924548,16.024579 L18.4812267,16.0246175 L18.3459846,16.6039084 L19.1207706,16.599614 C20.2903407,16.5931241 20.9095056,16.9823608 21.1890214,17.3788192 C21.4684986,17.7752582 21.5161267,18.1736809 21.3670478,18.8438104 C21.2179495,19.5139592 20.9676899,19.8501987 20.523232,20.228497 C20.0787934,20.6067954 19.5437495,20.9285338 18.4299706,20.9338297 L15.5153372,20.9476952 L17.0468846,14.4314855 L22.0486811,14.4314855 Z M24.8787691,17.4742405 C25.3349217,17.4737398 25.6835445,17.7823252 25.6059849,17.9843963 L25.6059849,17.9843963 L24.0804006,17.9843963 C24.1564743,17.745023 24.4226357,17.4748182 24.8787691,17.4742405 Z" id="path14" fill="#109F9C"></path>
                <path d="M9.55232281,23.3849177 C10.5113491,23.6668312 12.3297456,23.5230532 13.3591333,23.1457178 C13.715186,23.0151891 13.6886702,23.1840599 13.5154684,23.3698197 C12.091393,24.897437 9.83919123,24.9898162 9.26684386,23.9553694 C8.99410175,23.4624492 9.33942456,23.3223494 9.55232281,23.3849177 Z" id="path16" fill="#109F9C"></path>
                <path d="M2.95631754,0.0558858543 C4.8048193,0.86012605 6.94489825,0.804529062 9.02984211,0.467037815 C9.1564386,0.446586134 9.30742807,0.39665091 9.33811228,0.498928571 C9.36879649,0.601186975 9.11948246,0.685015756 9.05448596,0.71030112 C5.50339649,2.09283088 2.46482982,2.9591194 0.434480702,3.50480567 C0.319270175,3.53577206 0.226098246,3.55562675 0.195587719,3.52246499 C0.165057895,3.48930322 0.229205263,3.40632178 0.296440351,3.32370623 L2.95631754,0.0558858543 Z" id="path18" fill="#109F9C"></path>
            </g>
        </g>
    </g>
</svg>