<?xml version="1.0" encoding="UTF-8"?>
<svg width="17px" height="21px" viewBox="0 0 17 21" version="1.1" xmlns="http://www.w3.org/2000/svg" xmlns:xlink="http://www.w3.org/1999/xlink">
    <!-- Generator: Sketch 58 (84663) - https://sketch.com -->
    <title>Icon/Admin</title>
    <desc>Created with Sketch.</desc>
    <g id="Icon/Admin" stroke="none" stroke-width="1" fill="none" fill-rule="evenodd">
        <g id="security" transform="translate(2.000000, 2.000000)">
            <path d="M13.9820302,4.37717781 C13.9734768,3.91820216 13.9653122,3.48461496 13.9653122,3.06515009 C13.9653122,2.73652828 13.7042778,2.47010819 13.3821255,2.47010819 C10.8880306,2.47010819 8.98909713,1.73876202 7.40625081,0.168486116 C7.17981887,-0.0562017062 6.81948728,-0.0561223673 6.5931331,0.168486116 C5.0104423,1.73876202 3.11181984,2.47010819 0.617880454,2.47010819 C0.295805907,2.47010819 0.0346938051,2.73652828 0.0346938051,3.06515009 C0.0346938051,3.4846943 0.0266069502,3.91844017 0.0179757878,4.37749517 C-0.0619596622,8.64878527 -0.171443236,14.4985232 6.80867889,16.9671537 C6.87057443,16.9890512 6.93511375,17 6.99965308,17 C7.0641924,17 7.12880948,16.9890512 7.19062726,16.9671537 C14.1712937,14.4984438 14.0619656,8.64854725 13.9820302,4.37717781 Z M6.99973083,15.7734996 C1.01335876,13.5546281 1.10386933,8.69392911 1.18419357,4.4001861 C1.18901458,4.14249328 1.19368007,3.89273436 1.19694592,3.64789446 C3.53280284,3.54729271 5.4007108,2.82507052 6.99973083,1.4037931 C8.59890638,2.82507052 10.4671254,3.54737205 12.8031378,3.64789446 C12.8064037,3.89265503 12.8110692,4.14225527 12.8158902,4.3997894 C12.8961366,8.6936911 12.9865695,13.5545487 6.99973083,15.7734996 Z" id="Shape" fill="#38435A" fill-rule="nonzero"></path>
            <polygon id="Path-2" stroke="#38435A" fill="#38435A" points="1.19694592 3.64789446 7.00002797 1.4037931 12.8347258 3.64789446 12.8347258 9.96743841 10.4678179 14 7.01583585 15.7734996 3.62186842 14 1.4905726 9.96743841"></polygon>
            <path d="M8.98928778,6.65629219 L6.17776501,9.21894567 L4.97801938,8.12533824 C4.75052828,7.91804345 4.38168048,7.91804345 4.15426705,8.12533824 C3.92677595,8.33277462 3.92677595,8.66892067 4.15426705,8.87628626 L5.76588885,10.3453323 C5.87959556,10.4489797 6.02871912,10.5008034 6.17776501,10.5008034 C6.3268109,10.5008034 6.47593446,10.4489797 6.58964118,10.3453323 L9.81296244,7.40724021 C10.0405312,7.19987462 10.0405312,6.86365777 9.81304011,6.65636299 C9.58562668,6.4489974 9.21677888,6.4489266 8.98928778,6.65629219 Z" id="Path" fill="#EDF1F7" fill-rule="nonzero"></path>
        </g>
    </g>
</svg>