<?xml version="1.0" encoding="UTF-8"?>
<svg width="12px" height="12px" viewBox="0 0 12 12" version="1.1" xmlns="http://www.w3.org/2000/svg" xmlns:xlink="http://www.w3.org/1999/xlink">
    <!-- Generator: Sketch 58 (84663) - https://sketch.com -->
    <title>Icon/Arrow</title>
    <desc>Created with Sketch.</desc>
    <g id="Icon/Arrow" stroke="none" stroke-width="1" fill="none" fill-rule="evenodd">
        <g id="double-angle-pointing-to-right" transform="translate(1.000000, 1.000000)" fill="#38435A" fill-rule="nonzero">
            <path d="M9.8970498,4.7694921 L5.09255046,0.10026813 C5.02397718,0.0335162984 4.94489582,0 4.85552306,0 C4.76625862,0 4.6872856,0.0335162984 4.61856787,0.10026813 L4.10302242,0.601257826 C4.0343047,0.668044754 4,0.744763736 4,0.831730634 C4,0.918697532 4.0343047,0.995416515 4.10302242,1.06220344 L8.15484057,5.00007019 L4.10305853,8.93804223 C4.03434081,9.00482915 4,9.08168852 4,9.16840975 C4,9.25534155 4.03434081,9.33220092 4.10305853,9.39898784 L4.61860398,9.89983716 C4.6872856,9.96669428 4.76625862,10 4.85555917,10 C4.94504026,10 5.02401329,9.96662408 5.09255046,9.89983716 L9.8970498,5.23057809 C9.96573141,5.16382626 10,5.0869318 10,5.00010529 C10,4.91327877 9.96573141,4.83641941 9.8970498,4.7694921 Z" id="Path"></path>
            <path d="M6,5.00010529 C6,4.91327877 5.96580446,4.83638431 5.89683562,4.7694921 L1.09277693,0.10026813 C1.02409697,0.0335162984 0.945017513,0 0.855683008,0 C0.766348503,0 0.687232941,0.0335162984 0.618552978,0.10026813 L0.103128272,0.601292922 C0.0343038721,0.66807985 0,0.744798832 0,0.83176573 C0,0.918732628 0.0343038721,0.99545161 0.103128272,1.06223854 L4.15474055,5.00010529 L0.103128272,8.93804223 C0.0343038721,9.00482915 0,9.08168852 0,9.16840975 C0,9.25534155 0.0343038721,9.33220092 0.103128272,9.39898784 L0.618516869,9.89983716 C0.687232941,9.96669428 0.766312394,10 0.855646899,10 C0.944981404,10 1.02406086,9.96662408 1.09277693,9.89983716 L5.89683562,5.23057809 C5.96580446,5.16382626 6,5.0869318 6,5.00010529 Z" id="Path"></path>
        </g>
    </g>
</svg>