<?xml version="1.0" encoding="UTF-8"?>
<svg width="17px" height="20px" viewBox="0 0 17 20" version="1.1" xmlns="http://www.w3.org/2000/svg" xmlns:xlink="http://www.w3.org/1999/xlink">
    <!-- Generator: Sketch 58 (84663) - https://sketch.com -->
    <title>Icon/Company</title>
    <desc>Created with Sketch.</desc>
    <g id="Icon/Company" stroke="transparent" stroke-width="1" fill="none" fill-rule="evenodd">
        <g id="hotel-with-three-floors" transform="translate(1.000000, 1.000000)" fill="#38435A" fill-rule="nonzero">
            <path d="M11.375,1.8 L11.375,0 L2.625,0 L2.625,1.8 L0,1.8 L0,18 L5.25,18 L5.25,16.2 L8.75,16.2 L8.75,18 L14,18 L14,1.8 L11.375,1.8 Z M6.125,13.5 L4.375,13.5 L4.375,11.7 L6.125,11.7 L6.125,13.5 Z M6.125,9.9 L4.375,9.9 L4.375,8.1 L6.125,8.1 L6.125,9.9 Z M6.125,6.3 L4.375,6.3 L4.375,4.5 L6.125,4.5 L6.125,6.3 Z M9.625,13.5 L7.875,13.5 L7.875,11.7 L9.625,11.7 L9.625,13.5 Z M9.625,9.9 L7.875,9.9 L7.875,8.1 L9.625,8.1 L9.625,9.9 Z M9.625,6.3 L7.875,6.3 L7.875,4.5 L9.625,4.5 L9.625,6.3 Z" id="Shape"></path>
        </g>
    </g>
</svg>
