<?xml version="1.0" encoding="UTF-8"?>
<svg width="17px" height="21px" viewBox="0 0 17 21" version="1.1" xmlns="http://www.w3.org/2000/svg" xmlns:xlink="http://www.w3.org/1999/xlink">
    <!-- Generator: Sketch 58 (84663) - https://sketch.com -->
    <title>Icon/Handbooks</title>
    <desc>Created with Sketch.</desc>
    <g id="Icon/Handbooks" stroke="none" stroke-width="1" fill="none" fill-rule="evenodd">
        <g id="dictionary-book-with-letters-a-to-z" transform="translate(1.000000, 2.000000)">
            <path d="M3.77204837,7.55551403 L2.8,7.55551403 L2.8,5.70594931 L3.76560498,5.70594931 L3.76560498,4.72222222 L4.62811579,4.72222222 L4.62811579,5.69282741 L5.6,5.69282741 L5.6,7.54928528 L4.62811579,7.54928528 L4.62811579,7.55555556 L3.77204837,7.55555556 L3.77204837,7.55551403 Z M0.88284597,14.7627352 C0.883280689,14.8034477 0.883932766,14.8338341 0.884367485,14.8537462 C0.884584844,14.865997 0.882447479,14.8773595 0.881795401,14.8893882 C0.908566804,15.5638838 1.45254431,16.1039911 2.11878635,16.1039911 L13.1229558,16.1039911 L13.1229558,14.8655528 C13.1229558,14.6183167 13.3193398,14.4175299 13.5614779,14.4175299 C13.8034349,14.4175299 14,14.6183537 14,14.8655528 L14,16.5519771 C14,16.7994352 13.8033986,17 13.5614779,17 L2.05260049,17 C2.029814,17 2.00786073,16.996706 1.98569009,16.9932269 C0.880599926,16.9225351 0.00203422333,15.9842593 0.00203422333,14.8374982 C0.00203422333,14.8112201 0.00511347802,14.7858303 0.00598291464,14.7598113 C-0.00760203252,13.4295107 0.00598291464,3.30996608 0.00750442872,2.20891409 C0.00580178201,2.19325827 0.00290365995,2.17830566 0.00290365995,2.16231674 C0.00290365995,0.96988361 0.952328447,0 2.11951088,0 L2.82024057,0 L13.4539938,0 L13.5610432,0 C13.8032175,0 13.9995653,0.200712796 13.9995653,0.448022938 L13.9995653,13.1110647 C13.9995653,13.3582638 13.8031813,13.5590506 13.5610432,13.5590506 C13.5584711,13.5590506 13.5563337,13.5581993 13.5537617,13.5581993 C13.5216287,13.5660828 13.4878294,13.5713014 13.4533417,13.5713014 L2.11878635,13.5713014 C1.46011566,13.5711163 0.921173635,14.099417 0.88284597,14.7627352 Z M8.40042497,4.81478627 L12.0484315,4.81478627 L12.0484315,5.63572017 L11.1333874,5.63572017 L11.1333874,6.56793779 L10.2245248,6.56793779 L10.2245248,7.49995867 L9.30928759,7.49995867 L9.30928759,8.42599823 L8.4,8.42599823 L8.4,10.3888889 L13.0666667,10.3888889 L13.0666667,9.3575469 L9.41251739,9.3575469 L9.41251739,8.53673105 L10.3277546,8.53673105 L10.3277546,7.60474953 L11.2366172,7.60474953 L11.2366172,6.6725319 L12.1518158,6.6725319 L12.1518158,5.74700389 L13.0666667,5.74700389 L13.0666667,3.77777778 L8.40042497,3.77777778 L8.40042497,4.81478627 Z M6.53333333,7.55555556 L8.4,7.55555556 L8.4,6.61111111 L6.53333333,6.61111111 L6.53333333,7.55555556 Z M1.86747797,10.3883773 L2.87966952,10.3883773 L2.87966952,8.5366917 L3.79446661,8.5366917 L3.79446661,8.5307891 L5.51519226,8.5307891 L5.51519226,10.3888889 L6.53333333,10.3888889 L6.53333333,5.63572017 L5.61818854,5.63572017 L5.61818854,4.69756059 L4.70315965,4.69756059 L4.70315965,3.77777778 L3.69089083,3.77777778 L3.69089083,4.7097593 L2.77586194,4.7097593 L2.77586194,5.64197693 L1.86666667,5.64197693 L1.86666667,10.3883773 L1.86747797,10.3883773 Z" id="Shape" fill="#38435A" fill-rule="nonzero"></path>
            <rect id="Rectangle" fill="#38435A" x="1" y="3" width="13" height="8"></rect>
            <text id="A" font-family="Roboto-Bold, Roboto" font-size="9" font-weight="bold" fill="#EDF1F7">
                <tspan x="4" y="10">A</tspan>
            </text>
        </g>
    </g>
</svg>