<?xml version="1.0" encoding="UTF-8"?>
<svg width="17px" height="21px" viewBox="0 0 17 21" version="1.1" xmlns="http://www.w3.org/2000/svg" xmlns:xlink="http://www.w3.org/1999/xlink">
    <!-- Generator: Sketch 58 (84663) - https://sketch.com -->
    <title>Icon/Setting</title>
    <desc>Created with Sketch.</desc>
    <g id="Icon/Setting" stroke="none" stroke-width="1" fill="none" fill-rule="evenodd">
        <g id="settings-2" transform="translate(0.000000, 3.000000)" fill="#38435A" fill-rule="nonzero">
            <path d="M15.1762963,6.22222222 L13.6794074,6.22222222 C13.4388148,6.22222222 13.2405926,6.08977778 13.1484444,5.86755556 C13.0562963,5.64533333 13.1031111,5.41125926 13.2728889,5.24118519 L14.3312593,4.18311111 C14.4868148,4.02755556 14.5724444,3.82044444 14.5724444,3.60059259 C14.5724444,3.38044444 14.4868148,3.17362963 14.3312593,3.01777778 L12.9822222,1.66874074 C12.6711111,1.35762963 12.1285926,1.35703704 11.8168889,1.66874074 L10.7588148,2.72681481 C10.6180741,2.86755556 10.4634074,2.89688889 10.3582222,2.89688889 C10.2100741,2.89688889 10.0628148,2.83881481 9.95407407,2.73718519 C9.87377778,2.66192593 9.77777778,2.52859259 9.77777778,2.32059259 L9.77777778,0.823703704 C9.77777778,0.369481481 9.4082963,0 8.95407407,0 L7.04592593,0 C6.5917037,0 6.22222222,0.369481481 6.22222222,0.823703704 L6.22222222,2.32059259 C6.22222222,2.68148148 5.92681481,2.89688889 5.64118519,2.89688889 C5.5362963,2.89688889 5.38162963,2.86725926 5.24088889,2.72681481 L4.18281481,1.66874074 C3.87111111,1.35703704 3.32859259,1.35762963 3.01748148,1.66874074 L1.66844444,3.01777778 C1.51288889,3.17333333 1.42725926,3.38044444 1.42725926,3.60059259 C1.42725926,3.82044444 1.51288889,4.02725926 1.66844444,4.18311111 L2.72681481,5.24118519 C2.89659259,5.41125926 2.94311111,5.64533333 2.85125926,5.86755556 C2.75940741,6.08977778 2.56118519,6.22222222 2.32059259,6.22222222 L0.823703704,6.22222222 C0.369481481,6.22222222 0,6.5917037 0,7.04592593 L0,8.95348148 C0,9.408 0.369481481,9.77777778 0.823703704,9.77777778 L2.32059259,9.77777778 C2.56118519,9.77777778 2.75940741,9.91022222 2.85155556,10.1324444 C2.9437037,10.3546667 2.89688889,10.5887407 2.72711111,10.7588148 L1.66874074,11.8168889 C1.51318519,11.9724444 1.42755556,12.1795556 1.42755556,12.3994074 C1.42755556,12.6195556 1.51318519,12.8263704 1.66874074,12.9822222 L3.01777778,14.3312593 C3.32918519,14.6426667 3.87140741,14.6432593 4.18311111,14.3312593 L5.24118519,13.2731852 C5.38192593,13.1324444 5.53659259,13.1031111 5.64177778,13.1031111 C5.92711111,13.1031111 6.22251852,13.3188148 6.22251852,13.6794074 L6.22251852,15.176 C6.22222222,15.6302222 6.5917037,16 7.04592593,16 L8.95377778,16 C9.408,16 9.77748148,15.6302222 9.77748148,15.176 L9.77748148,13.6794074 C9.77748148,13.3185185 10.0728889,13.1031111 10.3582222,13.1031111 C10.4631111,13.1031111 10.6180741,13.1327407 10.7588148,13.2731852 L11.8168889,14.3312593 C12.1285926,14.642963 12.6711111,14.6423704 12.9822222,14.3312593 L14.3312593,12.9822222 C14.4868148,12.8266667 14.5724444,12.6195556 14.5724444,12.3994074 C14.5724444,12.1795556 14.4868148,11.9727407 14.3312593,11.8168889 L13.2728889,10.7588148 C13.1031111,10.5887407 13.0565926,10.3546667 13.1484444,10.1324444 C13.2402963,9.91022222 13.4388148,9.77777778 13.6794074,9.77777778 L15.1762963,9.77777778 C15.6305185,9.77777778 16,9.408 16,8.95377778 L16,7.04592593 C16,6.5917037 15.6305185,6.22222222 15.1762963,6.22222222 Z M10.0740741,8 C10.0740741,9.14340741 9.14340741,10.0740741 8,10.0740741 C6.85659259,10.0740741 5.92592593,9.14340741 5.92592593,8 C5.92592593,6.85659259 6.85659259,5.92592593 8,5.92592593 C9.14340741,5.92592593 10.0740741,6.85659259 10.0740741,8 Z" id="Shape"></path>
        </g>
    </g>
</svg>