<?xml version="1.0" encoding="UTF-8"?>
<svg width="17px" height="21px" viewBox="0 0 17 21" version="1.1" xmlns="http://www.w3.org/2000/svg" xmlns:xlink="http://www.w3.org/1999/xlink">
    <!-- Generator: Sketch 58 (84663) - https://sketch.com -->
    <title>Icon/Statistics</title>
    <desc>Created with Sketch.</desc>
    <g id="Icon/Statistics" stroke="none" stroke-width="1" fill="none" fill-rule="evenodd">
        <g id="bar-chart" transform="translate(1.000000, 2.000000)" fill="#38435A" fill-rule="nonzero">
            <path d="M3.68794326,8 L0.312056738,8 C0.138691883,8 0,8.14787155 0,8.33271098 L0,16.667289 C0,16.8521285 0.138691883,17 0.312056738,17 L3.68794326,17 C3.86130812,17 4,16.8521285 4,16.667289 L4,8.33271098 C4,8.14787155 3.86130812,8 3.68794326,8 Z" id="Shape"></path>
            <path d="M8.68818898,0 L5.31181102,0 C5.13858268,0 5,0.154067971 5,0.346652935 L5,16.6533471 C5,16.845932 5.13858268,17 5.31181102,17 L8.68818898,17 C8.86141732,17 9,16.845932 9,16.6533471 L9,0.346652935 C9,0.157569516 8.86141732,0 8.68818898,0 Z" id="Shape"></path>
            <path d="M13.6879433,17 C13.8613081,17 14,16.8293047 14,16.6159355 L14,4.38406446 C14,4.17069531 13.8613081,4 13.6879433,4 L10.3120567,4 C10.1386919,4 10,4.17069531 10,4.38406446 L10,16.6120561 C10,16.8254252 10.1386919,16.9961206 10.3120567,16.9961206 L13.6879433,16.9961206 L13.6879433,17 Z" id="Shape"></path>
        </g>
    </g>
</svg>