<?xml version="1.0" encoding="UTF-8"?>
<svg width="17px" height="21px" viewBox="0 0 17 21" version="1.1" xmlns="http://www.w3.org/2000/svg" xmlns:xlink="http://www.w3.org/1999/xlink">
    <!-- Generator: Sketch 58 (84663) - https://sketch.com -->
    <title>Icon/TextMaterial</title>
    <desc>Created with Sketch.</desc>
    <g id="Icon/TextMaterial" stroke="none" stroke-width="1" fill="none" fill-rule="evenodd">
        <g id="file" transform="translate(1.000000, 2.000000)" fill="#38435A" fill-rule="nonzero">
            <path d="M14.0585603,3 L13.5593025,3 L13.5593025,15.1508798 C13.5593025,15.9580935 12.8960028,16.6151656 12.0811606,16.6151656 L7.02259142,16.6151656 L3,16.6151656 L3,17.06559 C3,17.5813879 3.42258607,18 3.94324063,18 L9,18 L14.0567772,18 C14.5774318,18 15,17.5813879 15,17.06559 L15,3.93440996 C15,3.41862979 14.5792148,3 14.0585603,3 Z" id="Path"></path>
            <path d="M6.99910834,16 L12.0566206,16 C12.5773518,16 13,15.5813879 13,15.0656254 L13,2.91474554 L13,1.93440996 C13,1.41862979 12.5773518,1 12.0566206,1 L6.99910834,1 L5.31743201,1 L5.31743201,1.30911482 C5.32098083,1.34090949 5.32278199,1.37447053 5.32278199,1.40803157 L5.32278199,3.44465667 L5.32278199,3.96750232 C5.32278199,4.69348056 4.72715114,5.28344828 3.99420419,5.28344828 L3.46633972,5.28344828 L1.41016496,5.28344828 C1.38341507,5.28344828 1.35488185,5.28168191 1.32813197,5.27991554 L1,5.27991554 L1,15.0656254 C1,15.5813879 1.42264824,16 1.9433794,16 L2.97770843,16 L6.99910834,16 L6.99910834,16 Z M7.18992421,12.8240836 L3.89255461,12.8240836 C3.64645564,12.8240836 3.44672314,12.6262325 3.44672314,12.382491 C3.44672314,12.1387142 3.64645564,11.9408984 3.89255461,11.9408984 L7.19170753,11.9408984 C7.43780651,11.9408984 7.63753901,12.1387142 7.63753901,12.382491 C7.63753901,12.6262325 7.43602318,12.8240836 7.18992421,12.8240836 Z M10.4890771,10.5702126 L3.89255461,10.5702126 C3.64645564,10.5702126 3.44672314,10.3723615 3.44672314,10.12862 C3.44672314,9.88484325 3.64645564,9.68702742 3.89255461,9.68702742 L10.4890771,9.68702742 C10.7351761,9.68702742 10.9349086,9.88484325 10.9349086,10.12862 C10.9349086,10.3723615 10.7351761,10.5702126 10.4890771,10.5702126 Z M3.89255461,7.29357783 L10.4890771,7.29357783 C10.7351761,7.29357783 10.9349086,7.49141132 10.9349086,7.73517044 C10.9349086,7.97892956 10.7351761,8.17676304 10.4890771,8.17676304 L3.89255461,8.17676304 C3.64645564,8.17676304 3.44672314,7.97892956 3.44672314,7.73517044 C3.44672314,7.49141132 3.64645564,7.29357783 3.89255461,7.29357783 Z" id="Shape"></path>
            <path d="M1.26346228,4.89191137 L4.0018936,4.89191137 C4.00378348,4.89191137 4.00756323,4.89191137 4.00945311,4.89191137 C4.46680326,4.88813244 4.83721909,4.51779706 4.84099885,4.06054623 C4.84099885,4.05865676 4.84099885,4.05487783 4.84099885,4.05298837 L4.84099885,1.31326234 C4.84099885,1.06007386 4.63311241,0.89191137 4.41768537,0.89191137 C4.31374215,0.89191137 4.20979893,0.929700695 4.12286461,1.01661614 L0.964861765,4.1739142 C0.700279029,4.43843948 0.887376821,4.89191137 1.26346228,4.89191137 Z" id="Path"></path>
        </g>
    </g>
</svg>