<?xml version="1.0" encoding="UTF-8"?>
<svg width="17px" height="21px" viewBox="0 0 17 21" version="1.1" xmlns="http://www.w3.org/2000/svg" xmlns:xlink="http://www.w3.org/1999/xlink">
    <!-- Generator: Sketch 58 (84663) - https://sketch.com -->
    <title>Icon/Users</title>
    <desc>Created with Sketch.</desc>
    <g id="Icon/Users" stroke="none" stroke-width="1" fill="none" fill-rule="evenodd">
        <g id="man-user" transform="translate(1.000000, 0.000000)" fill-rule="nonzero">
            <path d="M8,10.5 C10.2090145,10.5 12,8.26144602 12,5.50002921 C12,2.73855398 11.411955,0.5 8,0.5 C4.58804496,0.5 4,2.73855398 4,5.50002921 C4,8.26144602 5.79087193,10.5 8,10.5 Z" id="Path" fill="#38435A"></path>
            <path d="M1.00069282,12.05 C0.99949282,11.8554143 0.99829282,11.9951757 1.00069282,12.05 L1.00069282,12.05 Z" id="Path" fill="#000000"></path>
            <path d="M13.9989918,13.0689041 C14.0027918,13.0273706 14.0002918,12.780749 13.9989918,13.0689041 L13.9989918,13.0689041 Z" id="Path" fill="#000000"></path>
            <path d="M14.9921631,18.0043539 C14.9235243,13.224254 14.3578985,11.8621851 10.0295519,11 C10.0295519,11 9.4202708,11.8569024 8.00015779,11.8569024 C6.58004478,11.8569024 5.97065851,11 5.97065851,11 C1.68954376,11.8527807 1.08951972,13.1946476 1.01062455,17.8490654 C1.00415515,18.2291304 1.00115713,18.2491002 1,18.2049808 C1.00026298,18.2876466 1.00057856,18.440555 1.00057856,18.7071868 C1.00057856,18.7071868 2.03089685,20.2761882 8,20.2761882 C13.968998,20.2761882 14.999737,18.7071868 14.999737,18.7071868 C14.999737,18.535876 14.9998422,18.4167537 15,18.3357135 C14.9988429,18.3629978 14.9965286,18.3101126 14.9921631,18.0043539 Z" id="Path" fill="#38435A"></path>
        </g>
    </g>
</svg>